<svg xmlns="http://www.w3.org/2000/svg" style="display: none;">
  
    <symbol id="icon-rub" viewBox="0 0 512 512">
      <path d="m371 161c0-19-6-34-18-46-13-12-29-18-49-18l-92 0 0 128 92 0c20 0 36-5 49-17 12-12 18-28 18-47z m68 0c0 37-12 67-36 90-24 24-55 35-94 35l-97 0 0 34 145 0c2 0 4 1 6 3 2 1 3 3 3 6l0 37c0 2-1 5-3 6-2 2-4 3-6 3l-145 0 0 55c0 2-1 5-2 6-2 2-4 3-7 3l-48 0c-2 0-4-1-6-3-2-1-3-4-3-6l0-55-64 0c-2 0-5-1-6-3-2-1-3-4-3-6l0-37c0-3 1-5 3-6 1-2 4-3 6-3l64 0 0-34-64 0c-2 0-5-1-6-2-2-2-3-4-3-7l0-42c0-3 1-5 3-7 1-2 4-3 6-3l64 0 0-179c0-3 1-5 3-7 2-2 4-2 6-2l154 0c39 0 70 11 94 34 24 24 36 54 36 90z"/>
    </symbol>
  
    <symbol id="icon-down-open-mini" viewBox="0 0 512 512">
      <path d="m344 195c8-9 16-9 25 0c9 7 9 15 0 24c0 0-101 98-101 98c-7 8-15 8-24 0c0 0-101-98-101-98c-9-9-9-17 0-24c9-9 17-9 26 0c0 0 87 79 87 79c0 0 88-79 88-79"/>
    </symbol>
  
    <symbol id="icon-right-open-mini" viewBox="0 0 512 512">
      <path d="m195 343c0 0 81-87 81-87c0 0-81-88-81-88c-9-9-9-17 0-25c9-9 17-9 24 0c0 0 99 100 99 100c8 9 8 17 0 25c0 0-99 100-99 100c-7 8-15 8-24 0c-9-8-9-16 0-25"/>
    </symbol>
  
    <symbol id="icon-up-dir" viewBox="0 0 512 512">
      <path d="m138 358c0 0 118-204 118-204c0 0 118 204 118 204c0 0-236 0-236 0"/>
    </symbol>
  
    <symbol id="icon-down-dir" viewBox="0 0 512 512">
      <path d="m374 154c0 0-118 204-118 204c0 0-118-204-118-204c0 0 236 0 236 0"/>
    </symbol>
  
</svg>
